<?xml version="1.0" encoding="UTF-8"?>
<svg version="1.1" xmlns="http://www.w3.org/2000/svg" width="94" height="94">
<path d="M0 0 C1.23556641 0.01740234 1.23556641 0.01740234 2.49609375 0.03515625 C3.32238281 0.04417969 4.14867188 0.05320312 5 0.0625 C5.63808594 0.07410156 6.27617188 0.08570313 6.93359375 0.09765625 C7.1560535 2.3463035 7.36105932 4.59668248 7.55859375 6.84765625 C7.73261719 8.72710938 7.73261719 8.72710938 7.91015625 10.64453125 C7.93247974 13.93352528 7.71320377 15.40786401 5.93359375 18.09765625 C5.60359375 18.09765625 5.27359375 18.09765625 4.93359375 18.09765625 C4.95679687 18.773125 4.98 19.44859375 5.00390625 20.14453125 C5.03097656 21.48257812 5.03097656 21.48257812 5.05859375 22.84765625 C5.08179687 23.729375 5.105 24.61109375 5.12890625 25.51953125 C4.92498877 28.21124205 4.29911096 29.79670599 2.93359375 32.09765625 C2.60359375 32.09765625 2.27359375 32.09765625 1.93359375 32.09765625 C0.49443528 38.13698196 -0.26523444 43.6576404 0.05859375 49.87109375 C-0.08327945 52.39821016 -0.79961547 53.93025641 -2.06640625 56.09765625 C-2.39640625 56.09765625 -2.72640625 56.09765625 -3.06640625 56.09765625 C-3.04320312 56.773125 -3.02 57.44859375 -2.99609375 58.14453125 C-2.96902344 59.48257813 -2.96902344 59.48257813 -2.94140625 60.84765625 C-2.91820312 61.729375 -2.895 62.61109375 -2.87109375 63.51953125 C-3.07501123 66.21124205 -3.70088904 67.79670599 -5.06640625 70.09765625 C-5.39640625 70.09765625 -5.72640625 70.09765625 -6.06640625 70.09765625 C-6.39640625 71.74765625 -6.72640625 73.39765625 -7.06640625 75.09765625 C-10.36640625 74.76765625 -13.66640625 74.43765625 -17.06640625 74.09765625 C-18.0022688 67.21780186 -18.27625418 61.72720004 -16.06640625 55.09765625 C-15.57140625 54.60265625 -15.57140625 54.60265625 -15.06640625 54.09765625 C-14.8595981 52.06404282 -14.65391337 50.03031036 -14.453125 47.99609375 C-13.69268888 42.29666344 -12.33402213 36.70227237 -11.06640625 31.09765625 C-10.40640625 31.09765625 -9.74640625 31.09765625 -9.06640625 31.09765625 C-9.08960938 30.4221875 -9.1128125 29.74671875 -9.13671875 29.05078125 C-9.16378906 27.71273437 -9.16378906 27.71273437 -9.19140625 26.34765625 C-9.21460938 25.4659375 -9.2378125 24.58421875 -9.26171875 23.67578125 C-9.0520588 20.90826987 -8.41406026 19.49139134 -7.06640625 17.09765625 C-5.48475574 13.52581081 -4.6236245 10.20136638 -4.00390625 6.34765625 C-3.00001412 0.1417776 -3.00001412 0.1417776 0 0 Z M5.93359375 9.09765625 C6.93359375 13.09765625 6.93359375 13.09765625 6.93359375 13.09765625 Z M-8.06640625 22.09765625 C-7.06640625 26.09765625 -7.06640625 26.09765625 -7.06640625 26.09765625 Z M2.93359375 23.09765625 C3.93359375 27.09765625 3.93359375 27.09765625 3.93359375 27.09765625 Z M-11.06640625 36.09765625 C-10.06640625 40.09765625 -10.06640625 40.09765625 -10.06640625 40.09765625 Z M-12.06640625 40.09765625 C-12.06640625 41.74765625 -12.06640625 43.39765625 -12.06640625 45.09765625 C-11.73640625 45.09765625 -11.40640625 45.09765625 -11.06640625 45.09765625 C-11.06640625 43.44765625 -11.06640625 41.79765625 -11.06640625 40.09765625 C-11.39640625 40.09765625 -11.72640625 40.09765625 -12.06640625 40.09765625 Z M-13.06640625 46.09765625 C-12.06640625 50.09765625 -12.06640625 50.09765625 -12.06640625 50.09765625 Z M-2.06640625 46.09765625 C-2.06640625 47.74765625 -2.06640625 49.39765625 -2.06640625 51.09765625 C-1.73640625 51.09765625 -1.40640625 51.09765625 -1.06640625 51.09765625 C-1.06640625 49.44765625 -1.06640625 47.79765625 -1.06640625 46.09765625 C-1.39640625 46.09765625 -1.72640625 46.09765625 -2.06640625 46.09765625 Z M-14.06640625 50.09765625 C-13.06640625 54.09765625 -13.06640625 54.09765625 -13.06640625 54.09765625 Z M-16.06640625 60.09765625 C-15.06640625 64.09765625 -15.06640625 64.09765625 -15.06640625 64.09765625 Z M-5.06640625 61.09765625 C-4.06640625 65.09765625 -4.06640625 65.09765625 -4.06640625 65.09765625 Z M-17.06640625 64.09765625 C-16.06640625 68.09765625 -16.06640625 68.09765625 -16.06640625 68.09765625 Z " fill="#11B3E3" transform="translate(52.06640625,8.90234375)"/>
<path d="M0 0 C3.53978265 1.17992755 4.73330062 2.93272061 7.03515625 5.76171875 C9.95782533 9.0911211 13.20459362 12.11088422 16.48046875 15.09130859 C17.90234375 16.44921875 17.90234375 16.44921875 20 19 C19.69436647 22.39465462 18.32736039 24.01620745 15.91015625 26.3125 C15.29076172 26.91320312 14.67136719 27.51390625 14.03320312 28.1328125 C13.38287109 28.74898437 12.73253906 29.36515625 12.0625 30 C10.77795015 31.22435659 9.49782714 32.45337822 8.22265625 33.6875 C7.65297119 34.22761719 7.08328613 34.76773438 6.49633789 35.32421875 C4.90559767 37.10572322 3.96809856 38.82643967 3 41 C0.16883598 40.08178464 -1.75048057 39.23342141 -3.9375 37.1875 C-5 35 -5 35 -4.35546875 32.6640625 C-2.77064591 29.54922338 -0.8949967 27.59949684 1.625 25.1875 C2.44226563 24.39730469 3.25953125 23.60710938 4.1015625 22.79296875 C4.72804688 22.20128906 5.35453125 21.60960938 6 21 C5.34 20.34 4.68 19.68 4 19 C-3.97560976 11.02439024 -3.97560976 11.02439024 -4.0625 7.375 C-2.89580932 4.76710318 -1.568747 2.38722369 0 0 Z " fill="#17A6DB" transform="translate(67,27)"/>
<path d="M0 0 C1.875 0.25 1.875 0.25 4 1 C5.1875 2.75 5.1875 2.75 6 5 C6.33 5.763125 6.66 6.52625 7 7.3125 C7 11.68468349 3.96305918 14.02193799 1 17 C-1 19 -1 19 -3 21 C-2.28972656 21.66386719 -1.57945313 22.32773437 -0.84765625 23.01171875 C0.53099609 24.33623047 0.53099609 24.33623047 1.9375 25.6875 C2.85402344 26.55761719 3.77054688 27.42773438 4.71484375 28.32421875 C7.04646772 31.05441092 7.70207297 32.48192553 8 36 C3.60546875 40.00390625 3.60546875 40.00390625 2 41 C-1 40 -1 40 -1.98168945 38.14453125 C-2.31773193 37.43683594 -2.65377441 36.72914062 -3 36 C-4.52123416 34.28480548 -4.52123416 34.28480548 -6.29296875 32.6875 C-6.92267578 32.08679687 -7.55238281 31.48609375 -8.20117188 30.8671875 C-9.53162482 29.61653557 -10.86763903 28.37177496 -12.20898438 27.1328125 C-12.83482422 26.53210938 -13.46066406 25.93140625 -14.10546875 25.3125 C-14.68449951 24.77238281 -15.26353027 24.23226562 -15.86010742 23.67578125 C-17 22 -17 22 -16.90576172 20.03173828 C-15.7827932 17.51277764 -14.39432648 16.08648914 -12.40234375 14.1796875 C-11.68369141 13.47972656 -10.96503906 12.77976562 -10.22460938 12.05859375 C-9.46986328 11.33800781 -8.71511719 10.61742187 -7.9375 9.875 C-6.44223486 8.43944384 -4.95111056 6.99955784 -3.46484375 5.5546875 C-2.800896 4.92030762 -2.13694824 4.28592773 -1.45288086 3.63232422 C0.22161868 2.11521888 0.22161868 2.11521888 0 0 Z " fill="#17AADC" transform="translate(24,27)"/>
<path d="M0 0 C1.23556641 0.01740234 1.23556641 0.01740234 2.49609375 0.03515625 C3.32238281 0.04417969 4.14867188 0.05320312 5 0.0625 C5.63808594 0.07410156 6.27617188 0.08570313 6.93359375 0.09765625 C6.60359375 2.07765625 6.27359375 4.05765625 5.93359375 6.09765625 C5.33546875 5.87078125 4.73734375 5.64390625 4.12109375 5.41015625 C1.92289522 4.84106264 1.92289522 4.84106264 0.38842773 6.18579102 C-1.60837984 8.80988903 -1.93047927 11.13995672 -2.53125 14.375 C-2.77423828 15.61056641 -3.01722656 16.84613281 -3.26757812 18.11914062 C-3.75762108 20.72533724 -4.24461147 23.33210972 -4.72851562 25.93945312 C-4.97279297 27.17630859 -5.21707031 28.41316406 -5.46875 29.6875 C-5.68007568 30.82050537 -5.89140137 31.95351074 -6.10913086 33.12084961 C-7.17594461 36.43828396 -8.38863955 37.91553787 -11.06640625 40.09765625 C-11.39640625 40.09765625 -11.72640625 40.09765625 -12.06640625 40.09765625 C-11.73640625 37.12765625 -11.40640625 34.15765625 -11.06640625 31.09765625 C-10.40640625 31.09765625 -9.74640625 31.09765625 -9.06640625 31.09765625 C-9.08960938 30.4221875 -9.1128125 29.74671875 -9.13671875 29.05078125 C-9.15476563 28.15875 -9.1728125 27.26671875 -9.19140625 26.34765625 C-9.21460938 25.4659375 -9.2378125 24.58421875 -9.26171875 23.67578125 C-9.0520588 20.90826987 -8.41406026 19.49139134 -7.06640625 17.09765625 C-5.48475574 13.52581081 -4.6236245 10.20136638 -4.00390625 6.34765625 C-3.00001412 0.1417776 -3.00001412 0.1417776 0 0 Z M-8.06640625 22.09765625 C-7.06640625 26.09765625 -7.06640625 26.09765625 -7.06640625 26.09765625 Z " fill="#4EE6F2" transform="translate(52.06640625,8.90234375)"/>
<path d="M0 0 C0.88327729 3.0526063 1.1633007 5.82505177 1.1875 9 C1.20167969 9.845625 1.21585938 10.69125 1.23046875 11.5625 C0.98543096 14.15408616 0.30584901 15.77024992 -1 18 C-1.33 18 -1.66 18 -2 18 C-2.33 19.65 -2.66 21.3 -3 23 C-6.3 22.67 -9.6 22.34 -13 22 C-13 20.02 -13 18.04 -13 16 C-11.515 16.99 -11.515 16.99 -10 18 C-10.33 18.66 -10.66 19.32 -11 20 C-9.02 20 -7.04 20 -5 20 C-4.89042969 19.2265625 -4.78085937 18.453125 -4.66796875 17.65625 C-3.71460271 11.39348771 -2.4689862 5.83578557 0 0 Z M-1 9 C0 13 0 13 0 13 Z " fill="#0E7CCE" transform="translate(48,61)"/>
<path d="M0 0 C3.53541998 1.17847333 4.72578313 2.93375664 7.0390625 5.74609375 C11.09541762 10.40847803 15.59709291 14.66760209 20 19 C17 19 17 19 15.46606445 17.80664062 C14.67268677 16.98969727 14.67268677 16.98969727 13.86328125 16.15625 C13.28642578 15.56972656 12.70957031 14.98320313 12.11523438 14.37890625 C11.52033203 13.75886719 10.92542969 13.13882813 10.3125 12.5 C9.70599609 11.87996094 9.09949219 11.25992188 8.47460938 10.62109375 C6.97626257 9.08735293 5.48723507 7.54451802 4 6 C1.53199953 7.15173355 -0.04783565 8.04783565 -2 10 C-2.66 9.67 -3.32 9.34 -4 9 C-3.35455571 5.51460083 -1.89865603 2.97180943 0 0 Z " fill="#44D6F0" transform="translate(67,27)"/>
<path d="M0 0 C0.33 0 0.66 0 1 0 C0.71034171 6.15523874 -0.32310946 12.03598095 -1.8125 18 C-2.12832031 19.27875 -2.44414063 20.5575 -2.76953125 21.875 C-4 25 -4 25 -8 27 C-7.505 22.545 -7.505 22.545 -7 18 C-6.34 18 -5.68 18 -5 18 C-4.35334337 15.75023648 -3.70770477 13.50018033 -3.0625 11.25 C-2.70285156 9.99703125 -2.34320313 8.7440625 -1.97265625 7.453125 C-1.27445851 4.97438281 -0.60056274 2.50339838 0 0 Z " fill="#23DAEB" transform="translate(48,22)"/>
<path d="M0 0 C1.875 0.25 1.875 0.25 4 1 C5.1875 2.9375 5.1875 2.9375 6 5 C6.33 5.66 6.66 6.32 7 7 C5.68 6.67 4.36 6.34 3 6 C3 5.34 3 4.68 3 4 C-1.758233 6.48216675 -5.11634242 9.88420742 -8.8125 13.6875 C-9.40998047 14.29400391 -10.00746094 14.90050781 -10.62304688 15.52539062 C-12.08664185 17.01240312 -13.54396102 18.50558811 -15 20 C-15.66 19.67 -16.32 19.34 -17 19 C-16.48501953 18.49549316 -15.97003906 17.99098633 -15.43945312 17.47119141 C-13.12114016 15.19431436 -10.81050842 12.90979529 -8.5 10.625 C-7.68917969 9.8309375 -6.87835938 9.036875 -6.04296875 8.21875 C-5.27597656 7.45820312 -4.50898438 6.69765625 -3.71875 5.9140625 C-3.00654297 5.2123291 -2.29433594 4.5105957 -1.56054688 3.78759766 C0.21921489 2.14437944 0.21921489 2.14437944 0 0 Z " fill="#36E5F9" transform="translate(24,27)"/>
<path d="M0 0 C1.30211046 3.90633137 0.47812346 6.19538173 -0.4375 10.1875 C-0.72496094 11.45980469 -1.01242188 12.73210938 -1.30859375 14.04296875 C-1.53675781 15.01878906 -1.76492187 15.99460937 -2 17 C-3.32 16.67 -4.64 16.34 -6 16 C-5.69247033 12.99667836 -5.35215972 9.99838851 -5 7 C-4.896875 6.030625 -4.79375 5.06125 -4.6875 4.0625 C-4 2 -4 2 -1.9375 0.6875 C-1.298125 0.460625 -0.65875 0.23375 0 0 Z M-4 8 C-3 12 -3 12 -3 12 Z " fill="#10BCF2" transform="translate(43,47)"/>
<path d="M0 0 C0.99 0.66 1.98 1.32 3 2 C2.745504 3.48206495 2.47088238 4.96068615 2.1875 6.4375 C2.03667969 7.26121094 1.88585938 8.08492187 1.73046875 8.93359375 C1.48941406 9.61550781 1.24835937 10.29742187 1 11 C0.01 11.33 -0.98 11.66 -2 12 C-2.66 12.99 -3.32 13.98 -4 15 C-3.88512252 13.41590006 -3.75765492 11.83271037 -3.625 10.25 C-3.55539063 9.36828125 -3.48578125 8.4865625 -3.4140625 7.578125 C-2.93888474 4.61947099 -2.15396403 2.15396403 0 0 Z M-2 6 C-1 10 -1 10 -1 10 Z " fill="#0EA5E9" transform="translate(38,63)"/>
<path d="M0 0 C0.66 0.33 1.32 0.66 2 1 C-2.29 5.29 -6.58 9.58 -11 14 C-11 11 -11 11 -8.59375 8.30078125 C-7.5700032 7.29697757 -6.5383946 6.30114351 -5.5 5.3125 C-4.97535156 4.80138672 -4.45070313 4.29027344 -3.91015625 3.76367188 C-2.61339096 2.50227292 -1.30753883 1.25022788 0 0 Z " fill="#1BEEFF" transform="translate(20,30)"/>
<path d="M0 0 C0.99 0 1.98 0 3 0 C3 0.66 3 1.32 3 2 C4.98 2 6.96 2 9 2 C9 2.99 9 3.98 9 5 C8.01 5.33 7.02 5.66 6 6 C2.8125 3.625 2.8125 3.625 0 1 C0 0.67 0 0.34 0 0 Z " fill="#124C87" transform="translate(62,62)"/>
<path d="M0 0 C3.21524305 1.40844718 5.32183868 3.10344786 7.75 5.625 C8.67039062 6.57246094 8.67039062 6.57246094 9.609375 7.5390625 C10.29773438 8.26222656 10.29773438 8.26222656 11 9 C10.67 9.66 10.34 10.32 10 11 C8.33035479 9.35718838 6.6643536 7.71067239 5 6.0625 C4.071875 5.14597656 3.14375 4.22945312 2.1875 3.28515625 C0 1 0 1 0 0 Z " fill="#19BBFC" transform="translate(72,30)"/>
<path d="M0 0 C1.875 0.25 1.875 0.25 4 1 C5.1875 2.9375 5.1875 2.9375 6 5 C6.33 5.66 6.66 6.32 7 7 C4.20171644 6.61402985 3.1794116 6.19863427 1.25 4.0625 C0 2 0 2 0 0 Z " fill="#53E1F2" transform="translate(24,27)"/>
<path d="M0 0 C0.99 0.33 1.98 0.66 3 1 C1.35 2.65 -0.3 4.3 -2 6 C-2.66 5.67 -3.32 5.34 -4 5 C-4 4.34 -4 3.68 -4 3 C-2.1875 1.3125 -2.1875 1.3125 0 0 Z " fill="#17CAEB" transform="translate(67,31)"/>
<path d="M0 0 C0.33 0 0.66 0 1 0 C0.67 2.97 0.34 5.94 0 9 C-0.33 9 -0.66 9 -1 9 C-0.67 6.03 -0.34 3.06 0 0 Z " fill="#3BFFFF" transform="translate(46,16)"/>
<path d="M0 0 C2.97 0 5.94 0 9 0 C9 0.33 9 0.66 9 1 C6.03 1 3.06 1 0 1 C0 0.67 0 0.34 0 0 Z " fill="#007FF0" transform="translate(35,84)"/>
<path d="M0 0 C0.33 0 0.66 0 1 0 C1 1.65 1 3.3 1 5 C0.67 5 0.34 5 0 5 C0 3.35 0 1.7 0 0 Z " fill="#0054FF" transform="translate(33,78)"/>
<path d="M0 0 C0.33 0 0.66 0 1 0 C1 1.65 1 3.3 1 5 C0.67 5 0.34 5 0 5 C0 3.35 0 1.7 0 0 Z " fill="#00A1C7" transform="translate(53,46)"/>
<path d="M0 0 C0.33 0 0.66 0 1 0 C1 1.65 1 3.3 1 5 C0.67 5 0.34 5 0 5 C0 3.35 0 1.7 0 0 Z " fill="#0087FF" transform="translate(54,41)"/>
<path d="M0 0 C0.99 0.33 1.98 0.66 3 1 C2.67 1.66 2.34 2.32 2 3 C1.34 2.01 0.68 1.02 0 0 Z " fill="#0AD7F4" transform="translate(83,41)"/>
<path d="M0 0 C0.33 0 0.66 0 1 0 C1 1.65 1 3.3 1 5 C0.67 5 0.34 5 0 5 C0 3.35 0 1.7 0 0 Z " fill="#11EEFF" transform="translate(42,35)"/>
<path d="M0 0 C0.33 0 0.66 0 1 0 C1 1.65 1 3.3 1 5 C0.67 5 0.34 5 0 5 C0 3.35 0 1.7 0 0 Z " fill="#11EEFF" transform="translate(60,12)"/>
<path d="M0 0 C1 4 1 4 1 4 Z " fill="#009FCF" transform="translate(49,65)"/>
<path d="M0 0 C1 4 1 4 1 4 Z " fill="#0094D9" transform="translate(52,51)"/>
<path d="M0 0 C1 4 1 4 1 4 Z " fill="#15E9FF" transform="translate(32,33)"/>
<path d="M0 0 C1 4 1 4 1 4 Z " fill="#15D4E9" transform="translate(61,33)"/>
<path d="M0 0 C1 4 1 4 1 4 Z " fill="#00BFE9" transform="translate(57,27)"/>
<path d="" fill="#0071C6" transform="translate(0,0)"/>
<path d="" fill="#00D4FF" transform="translate(0,0)"/>
<path d="" fill="#00B8FF" transform="translate(0,0)"/>
<path d="" fill="#1CB8E9" transform="translate(0,0)"/>
<path d="" fill="#1CCDFF" transform="translate(0,0)"/>
<path d="M0 0 C0.99 0.495 0.99 0.495 2 1 C1.01 1.495 1.01 1.495 0 2 C0 1.34 0 0.68 0 0 Z " fill="#3FFFFF" transform="translate(22,28)"/>
<path d="M0 0 C0.66 0 1.32 0 2 0 C1.67 0.66 1.34 1.32 1 2 C0.67 1.34 0.34 0.68 0 0 Z " fill="#15FFFF" transform="translate(70,28)"/>
<path d="" fill="#55E2E2" transform="translate(0,0)"/>
<path d="" fill="#0000FF" transform="translate(0,0)"/>
<path d="" fill="#003399" transform="translate(0,0)"/>
<path d="" fill="#003399" transform="translate(0,0)"/>
<path d="" fill="#0055FF" transform="translate(0,0)"/>
<path d="" fill="#0055FF" transform="translate(0,0)"/>
<path d="" fill="#0055AA" transform="translate(0,0)"/>
<path d="" fill="#0055AA" transform="translate(0,0)"/>
<path d="" fill="#0066CC" transform="translate(0,0)"/>
<path d="" fill="#003399" transform="translate(0,0)"/>
<path d="" fill="#0055AA" transform="translate(0,0)"/>
<path d="" fill="#0055AA" transform="translate(0,0)"/>
<path d="" fill="#0055FF" transform="translate(0,0)"/>
<path d="" fill="#0055FF" transform="translate(0,0)"/>
<path d="" fill="#006699" transform="translate(0,0)"/>
<path d="" fill="#003399" transform="translate(0,0)"/>
<path d="" fill="#0055FF" transform="translate(0,0)"/>
<path d="" fill="#00FFFF" transform="translate(0,0)"/>
<path d="" fill="#007FFF" transform="translate(0,0)"/>
<path d="" fill="#0055FF" transform="translate(0,0)"/>
<path d="" fill="#007FBF" transform="translate(0,0)"/>
<path d="" fill="#7FBFFF" transform="translate(0,0)"/>
<path d="" fill="#3FBFFF" transform="translate(0,0)"/>
<path d="" fill="#003FBF" transform="translate(0,0)"/>
<path d="" fill="#007FBF" transform="translate(0,0)"/>
<path d="" fill="#00AAFF" transform="translate(0,0)"/>
<path d="" fill="#00AAFF" transform="translate(0,0)"/>
<path d="" fill="#003FBF" transform="translate(0,0)"/>
<path d="" fill="#0055AA" transform="translate(0,0)"/>
<path d="" fill="#33CCCC" transform="translate(0,0)"/>
<path d="" fill="#00CCFF" transform="translate(0,0)"/>
<path d="" fill="#0055AA" transform="translate(0,0)"/>
<path d="" fill="#0066CC" transform="translate(0,0)"/>
<path d="" fill="#7FFFFF" transform="translate(0,0)"/>
<path d="" fill="#3FBFFF" transform="translate(0,0)"/>
<path d="" fill="#003399" transform="translate(0,0)"/>
<path d="" fill="#003FBF" transform="translate(0,0)"/>
<path d="" fill="#3FBFFF" transform="translate(0,0)"/>
<path d="" fill="#55FFFF" transform="translate(0,0)"/>
<path d="" fill="#007FBF" transform="translate(0,0)"/>
<path d="" fill="#0055AA" transform="translate(0,0)"/>
<path d="" fill="#66FFFF" transform="translate(0,0)"/>
<path d="" fill="#33FFFF" transform="translate(0,0)"/>
<path d="" fill="#00AAAA" transform="translate(0,0)"/>
<path d="" fill="#007FBF" transform="translate(0,0)"/>
<path d="" fill="#3FBFFF" transform="translate(0,0)"/>
<path d="" fill="#3FBFBF" transform="translate(0,0)"/>
<path d="" fill="#007FBF" transform="translate(0,0)"/>
<path d="" fill="#00FFFF" transform="translate(0,0)"/>
<path d="" fill="#3FFFFF" transform="translate(0,0)"/>
<path d="" fill="#3FFFFF" transform="translate(0,0)"/>
<path d="" fill="#00FFFF" transform="translate(0,0)"/>
<path d="" fill="#7FD4FF" transform="translate(0,0)"/>
<path d="" fill="#48B6B6" transform="translate(0,0)"/>
<path d="" fill="#007FD4" transform="translate(0,0)"/>
<path d="" fill="#33CCCC" transform="translate(0,0)"/>
<path d="" fill="#005555" transform="translate(0,0)"/>
<path d="" fill="#005555" transform="translate(0,0)"/>
<path d="" fill="#007FFF" transform="translate(0,0)"/>
<path d="" fill="#007FFF" transform="translate(0,0)"/>
<path d="" fill="#00FFFF" transform="translate(0,0)"/>
<path d="" fill="#00FFFF" transform="translate(0,0)"/>
<path d="" fill="#0055AA" transform="translate(0,0)"/>
<path d="" fill="#0055AA" transform="translate(0,0)"/>
<path d="" fill="#0055AA" transform="translate(0,0)"/>
<path d="" fill="#00AAAA" transform="translate(0,0)"/>
<path d="" fill="#0000FF" transform="translate(0,0)"/>
<path d="" fill="#0000FF" transform="translate(0,0)"/>
<path d="" fill="#0055AA" transform="translate(0,0)"/>
<path d="" fill="#0055AA" transform="translate(0,0)"/>
<path d="" fill="#3F3F7F" transform="translate(0,0)"/>
<path d="" fill="#0055FF" transform="translate(0,0)"/>
<path d="" fill="#007F7F" transform="translate(0,0)"/>
<path d="" fill="#007FFF" transform="translate(0,0)"/>
<path d="" fill="#007FFF" transform="translate(0,0)"/>
<path d="" fill="#007FFF" transform="translate(0,0)"/>
<path d="" fill="#55FFFF" transform="translate(0,0)"/>
<path d="" fill="#55FFFF" transform="translate(0,0)"/>
<path d="" fill="#55AAFF" transform="translate(0,0)"/>
<path d="" fill="#55FFFF" transform="translate(0,0)"/>
<path d="" fill="#3FBFFF" transform="translate(0,0)"/>
<path d="" fill="#3FFFFF" transform="translate(0,0)"/>
<path d="" fill="#7FFFFF" transform="translate(0,0)"/>
<path d="" fill="#7FFFFF" transform="translate(0,0)"/>
<path d="" fill="#0000FF" transform="translate(0,0)"/>
</svg>
